<svg xmlns="http://www.w3.org/2000/svg" xmlns:xlink="http://www.w3.org/1999/xlink" viewBox="0 0 248 64" id="full-logo_377656a6658bc87b9efbf659accc05fa">
    <!-- Generator: sketchtool 53.1 (72631) - https://sketchapp.com -->
    <title>C0987DFC-7073-42AD-95E6-B795089C1024</title>
    <desc>Created with sketchtool.</desc>
    <g id="full-logo_377656a6658bc87b9efbf659accc05fa_Screens" stroke="none" stroke-width="1" fill-rule="evenodd">
        <g id="full-logo_377656a6658bc87b9efbf659accc05fa_D---7---Onboarding---Sign-In" transform="translate(-596.000000, -40.000000)">
            <g id="full-logo_377656a6658bc87b9efbf659accc05fa_Logo" transform="translate(596.000000, 40.000000)">
                <path d="M203.975191,42.3953824 C203.975191,42.2850361 204.062932,42.1858844 204.184176,42.1858844 L206.686412,42.1858844 C208.037635,42.1858844 209.145574,43.2869483 209.145574,44.6183001 C209.145574,45.9832356 208.037635,47.0946945 206.697579,47.0946945 L205.106262,47.0946945 L205.106262,49.6806355 C205.106262,49.7909818 205.007353,49.8901335 204.897277,49.8901335 L204.184176,49.8901335 C204.062932,49.8901335 203.975191,49.7909818 203.975191,49.6806355 L203.975191,42.3953824 Z M206.621004,46.0160196 L205.106262,46.0160196 L205.106262,43.2869483 L206.621004,43.2869483 C207.378774,43.2869483 208.015301,43.8594696 208.015301,44.6079052 C208.015301,45.4003194 207.378774,46.0160196 206.621004,46.0160196 Z M68,15.6536818 C68,15.4289911 68.1810671,15.22589 68.4275418,15.22589 L69.9127708,15.22589 C70.1385065,15.22589 70.3411102,15.4289911 70.3411102,15.6536818 L70.3411102,28.9192233 L76.4391639,28.9192233 C76.6872338,28.9192233 76.8667057,29.1223244 76.8667057,29.3478147 L76.8667057,30.5888105 C76.8667057,30.8143007 76.6872338,31.0174018 76.4391639,31.0174018 L68.4275418,31.0174018 C68.1810671,31.0174018 68,30.8143007 68,30.5888105 L68,15.6536818 Z M85.9775727,15.6536818 C85.9775727,15.4289911 86.1801765,15.22589 86.4051145,15.22589 L87.8903435,15.22589 C88.1160792,15.22589 88.3178853,15.4289911 88.3178853,15.6536818 L88.3178853,30.5888105 C88.3178853,30.8143007 88.1160792,31.0174018 87.8903435,31.0174018 L86.4051145,31.0174018 C86.1801765,31.0174018 85.9775727,30.8143007 85.9775727,30.5888105 L85.9775727,15.6536818 Z M106.387029,15.00008 C108.547072,15.00008 110.324242,15.7892957 111.854937,17.0974588 C112.035206,17.2789705 112.05754,17.5492389 111.878069,17.7291513 C111.540662,18.0905753 111.202457,18.4288107 110.86505,18.7894351 C110.685578,18.9925362 110.505309,18.9701471 110.280371,18.767046 C109.222683,17.842696 107.827589,17.2333927 106.454031,17.2333927 C103.258635,17.2333927 100.805854,19.9408745 100.805854,23.0985372 C100.805854,26.2346103 103.258635,28.9412926 106.454031,28.9412926 C108.322134,28.9412926 109.604759,28.2648219 109.829697,28.1752655 L109.829697,25.6468965 L107.624985,25.6468965 C107.376915,25.6468965 107.197444,25.4677837 107.197444,25.2414939 L107.197444,23.9333307 C107.197444,23.6854514 107.376915,23.5047394 107.624985,23.5047394 L111.720133,23.5047394 C111.945869,23.5047394 112.125341,23.7078405 112.125341,23.9333307 C112.125341,25.7388517 112.148473,27.5883513 112.148473,29.3930726 C112.148473,29.5058177 112.05754,29.6857301 111.967406,29.7536971 C111.967406,29.7536971 109.650225,31.2417726 106.387029,31.2417726 C101.90821,31.2417726 98.2852717,27.6555186 98.2852717,23.144115 C98.2852717,18.6319118 101.90821,15.00008 106.387029,15.00008 Z M122.427343,15.6536818 C122.427343,15.4289911 122.629946,15.22589 122.854884,15.22589 L124.340113,15.22589 C124.588183,15.22589 124.768453,15.4289911 124.768453,15.6536818 L124.768453,21.9482172 L133.005013,21.9482172 L133.005013,15.6536818 C133.005013,15.4289911 133.184485,15.22589 133.432555,15.22589 L134.917784,15.22589 C135.142722,15.22589 135.345325,15.4289911 135.345325,15.6536818 L135.345325,30.5888105 C135.345325,30.8143007 135.142722,31.0174018 134.917784,31.0174018 L133.432555,31.0174018 C133.184485,31.0174018 133.005013,30.8143007 133.005013,30.5888105 L133.005013,24.0679852 L124.768453,24.0679852 L124.768453,30.5888105 C124.768453,30.8143007 124.588183,31.0174018 124.340113,31.0174018 L122.854884,31.0174018 C122.629946,31.0174018 122.427343,30.8143007 122.427343,30.5888105 L122.427343,15.6536818 Z M148.618184,17.3458179 L144.94978,17.3458179 C144.702508,17.3458179 144.522238,17.1427168 144.522238,16.9172266 L144.522238,15.6538417 C144.522238,15.4291511 144.702508,15.2260499 144.94978,15.2260499 L154.626901,15.2260499 C154.874173,15.2260499 155.054442,15.4291511 155.054442,15.6538417 L155.054442,16.9172266 C155.054442,17.1427168 154.874173,17.3458179 154.626901,17.3458179 L150.959294,17.3458179 L150.959294,30.5889704 C150.959294,30.8144606 150.75669,31.0175617 150.530955,31.0175617 L149.045726,31.0175617 C148.820788,31.0175617 148.618184,30.8144606 148.618184,30.5889704 L148.618184,17.3458179 Z M167.315558,23.4147832 L162.049456,15.8792519 C161.869985,15.5865944 162.049456,15.22597 162.409995,15.22597 L164.075494,15.22597 C164.254966,15.22597 164.368232,15.3371159 164.435235,15.4290711 L168.508847,21.1814705 L172.582458,15.4290711 C172.649461,15.3371159 172.784264,15.22597 172.942199,15.22597 L174.630032,15.22597 C174.989774,15.22597 175.170043,15.5865944 174.989774,15.8792519 L169.656669,23.3923941 L169.656669,30.5888904 C169.656669,30.8143807 169.454065,31.0174818 169.228329,31.0174818 L167.7431,31.0174818 C167.496626,31.0174818 167.315558,30.8143807 167.315558,30.5888904 L167.315558,23.4147832 Z M183.897957,15.6536818 C183.897957,15.4289911 184.079024,15.22589 184.325499,15.22589 L193.327805,15.22589 C193.575078,15.22589 193.75455,15.4289911 193.75455,15.6536818 L193.75455,16.9170667 C193.75455,17.1425569 193.575078,17.345658 193.327805,17.345658 L186.215935,17.345658 L186.215935,21.9482172 L192.224652,21.9482172 C192.450388,21.9482172 192.652991,22.1513183 192.652991,22.3768085 L192.652991,23.6401935 C192.652991,23.8888724 192.450388,24.0679852 192.224652,24.0679852 L186.215935,24.0679852 L186.215935,28.9192233 L193.327805,28.9192233 C193.575078,28.9192233 193.75455,29.1223244 193.75455,29.3478147 L193.75455,30.5888105 C193.75455,30.8143007 193.575078,31.0174018 193.327805,31.0174018 L184.325499,31.0174018 C184.079024,31.0174018 183.897957,30.8143007 183.897957,30.5888105 L183.897957,15.6536818 Z M201.785156,30.4308874 L208.693624,15.2478793 C208.761425,15.1127451 208.964029,15 209.076498,15 L209.301436,15 C209.414702,15 209.616508,15.1127451 209.683511,15.2478793 L216.548109,30.4308874 C216.682912,30.7235449 216.502643,31.0162024 216.165236,31.0162024 L214.747807,31.0162024 C214.477403,31.0162024 214.320266,30.8818678 214.230131,30.6795663 L212.834239,27.5882713 L205.475894,27.5882713 C205.02522,28.626166 204.55301,29.6416716 204.102336,30.6795663 C204.035334,30.8370896 203.855862,31.0162024 203.585458,31.0162024 L202.167231,31.0162024 C201.829824,31.0162024 201.649555,30.7235449 201.785156,30.4308874 L201.785156,30.4308874 Z M211.979155,25.6484157 L209.211301,19.4666254 L209.098832,19.4666254 L206.353312,25.6484157 L211.979155,25.6484157 Z M225.544912,15.6536818 C225.544912,15.4289911 225.725979,15.22589 225.972454,15.22589 L232.094437,15.22589 C234.794491,15.22589 237,17.3688467 237,20.0531398 C237,22.1289292 235.62724,23.8432946 233.669801,24.6325103 L236.752728,30.3625206 C236.909865,30.6567774 236.752728,31.0174018 236.369854,31.0174018 L234.614221,31.0174018 C234.433952,31.0174018 234.299946,30.9046567 234.25448,30.8143007 L231.261688,24.8348119 L227.86289,24.8348119 L227.86289,30.5888105 C227.86289,30.8143007 227.660286,31.0174018 227.435348,31.0174018 L225.972454,31.0174018 C225.725979,31.0174018 225.544912,30.8143007 225.544912,30.5888105 L225.544912,15.6536818 Z M231.91337,22.8957559 L227.908356,22.8957559 L227.908356,17.4136249 L231.91337,17.4136249 C233.376265,17.4136249 234.659687,18.6322316 234.659687,20.0987177 C234.659687,21.6547601 233.376265,22.8957559 231.91337,22.8957559 Z M95.8543458,42.3953824 C95.8543458,42.2850361 95.9420876,42.1858844 96.0633308,42.1858844 L96.7875993,42.1858844 C96.8976753,42.1858844 96.9965843,42.2850361 96.9965843,42.3953824 L96.9965843,48.8666318 L99.9710306,48.8666318 C100.091476,48.8666318 100.180016,48.9657835 100.180016,49.0753302 L100.180016,49.6806355 C100.180016,49.7909818 100.091476,49.8901335 99.9710306,49.8901335 L96.0633308,49.8901335 C95.9420876,49.8901335 95.8543458,49.7909818 95.8543458,49.6806355 L95.8543458,42.3953824 Z M106.820553,42.3953824 C106.820553,42.2850361 106.908295,42.1858844 107.029538,42.1858844 L111.420615,42.1858844 C111.54106,42.1858844 111.628802,42.2850361 111.628802,42.3953824 L111.628802,43.0110826 C111.628802,43.1214289 111.54106,43.2205806 111.420615,43.2205806 L107.951624,43.2205806 L107.951624,45.4658875 L110.882997,45.4658875 C110.992276,45.4658875 111.091982,45.5650392 111.091982,45.6753855 L111.091982,46.2910857 C111.091982,46.4110273 110.992276,46.5005837 110.882997,46.5005837 L107.951624,46.5005837 L107.951624,48.8666318 L111.420615,48.8666318 C111.54106,48.8666318 111.628802,48.9657835 111.628802,49.0753302 L111.628802,49.6806355 C111.628802,49.7909818 111.54106,49.8901335 111.420615,49.8901335 L107.029538,49.8901335 C106.908295,49.8901335 106.820553,49.7909818 106.820553,49.6806355 L106.820553,42.3953824 Z M117.741533,49.6043526 L121.112412,42.1959595 C121.145116,42.131191 121.244025,42.0760178 121.299063,42.0760178 L121.409139,42.0760178 C121.463379,42.0760178 121.562288,42.131191 121.594992,42.1959595 L124.943538,49.6043526 C125.008945,49.7474829 124.922001,49.889014 124.756887,49.889014 L124.065322,49.889014 C123.933709,49.889014 123.856337,49.8226463 123.812466,49.7242942 L123.132069,48.2178277 L119.542632,48.2178277 C119.323278,48.722382 119.091958,49.2189403 118.872604,49.7242942 C118.8399,49.8018565 118.752158,49.889014 118.620546,49.889014 L117.928183,49.889014 C117.763069,49.889014 117.676125,49.7474829 117.741533,49.6043526 L117.741533,49.6043526 Z M122.714896,47.2710886 L121.364471,44.2557566 L121.31023,44.2557566 L119.970174,47.2710886 L122.714896,47.2710886 Z M131.529037,42.3953824 C131.529037,42.2850361 131.616778,42.1858844 131.726855,42.1858844 L134.251425,42.1858844 C136.36999,42.1858844 138.104884,43.9138431 138.104884,46.0272142 C138.104884,48.1621748 136.36999,49.8901335 134.251425,49.8901335 L131.726855,49.8901335 C131.616778,49.8901335 131.529037,49.7909818 131.529037,49.6806355 L131.529037,42.3953824 Z M134.098276,48.8442427 L132.648941,48.8442427 L132.648941,43.2317752 L134.098276,43.2317752 C135.711927,43.2317752 136.886869,44.4096017 136.886869,46.0272142 C136.886869,47.6560212 135.711927,48.8442427 134.098276,48.8442427 Z M145.173282,42.3953824 C145.173282,42.2850361 145.261024,42.1858844 145.382267,42.1858844 L149.773344,42.1858844 C149.89379,42.1858844 149.981532,42.2850361 149.981532,42.3953824 L149.981532,43.0110826 C149.981532,43.1214289 149.89379,43.2205806 149.773344,43.2205806 L146.304354,43.2205806 L146.304354,45.4658875 L149.235727,45.4658875 C149.345005,45.4658875 149.443914,45.5650392 149.443914,45.6753855 L149.443914,46.2910857 C149.443914,46.4110273 149.345005,46.5005837 149.235727,46.5005837 L146.304354,46.5005837 L146.304354,48.8666318 L149.773344,48.8666318 C149.89379,48.8666318 149.981532,48.9657835 149.981532,49.0753302 L149.981532,49.6806355 C149.981532,49.7909818 149.89379,49.8901335 149.773344,49.8901335 L145.382267,49.8901335 C145.261024,49.8901335 145.173282,49.7909818 145.173282,49.6806355 L145.173282,42.3953824 Z M157.126345,42.3953824 C157.126345,42.2850361 157.214087,42.1858844 157.33533,42.1858844 L160.320943,42.1858844 C161.638665,42.1858844 162.714699,43.2317752 162.714699,44.5415375 C162.714699,45.5538446 162.04467,46.3902374 161.08988,46.7748502 L162.593455,49.5710888 C162.67003,49.7142191 162.593455,49.8901335 162.406805,49.8901335 L161.550924,49.8901335 C161.463182,49.8901335 161.396977,49.83576 161.374642,49.7909818 L159.914938,46.8748015 L158.257416,46.8748015 L158.257416,49.6806355 C158.257416,49.7909818 158.158507,49.8901335 158.048431,49.8901335 L157.33533,49.8901335 C157.214087,49.8901335 157.126345,49.7909818 157.126345,49.6806355 L157.126345,42.3953824 Z M160.233999,45.9280625 L158.278953,45.9280625 L158.278953,43.2533646 L160.233999,43.2533646 C160.947101,43.2533646 161.57246,43.848275 161.57246,44.5639266 C161.57246,45.3227571 160.947101,45.9280625 160.233999,45.9280625 Z M169.420643,48.7789945 C169.519552,48.6350645 169.606496,48.4703447 169.705405,48.3272144 C169.804314,48.1840841 169.958261,48.1401055 170.079504,48.2392572 C170.144912,48.2936308 170.990423,48.9980878 171.835137,48.9980878 C172.593705,48.9980878 173.076285,48.5359128 173.076285,47.9753857 C173.076285,47.3149073 172.505166,46.8967109 171.418763,46.4457304 C170.298859,45.9723609 169.420643,45.3894447 169.420643,44.1124664 C169.420643,43.2536845 170.079504,42.0758579 171.824768,42.0758579 C172.923136,42.0758579 173.746313,42.6483792 173.855591,42.7259414 C173.943333,42.780315 174.031075,42.9346398 173.921797,43.09856 C173.834055,43.232095 173.735146,43.3864199 173.647404,43.5183556 C173.559662,43.661486 173.416882,43.727054 173.262936,43.6287019 C173.186361,43.5839237 172.417424,43.0777701 171.780897,43.0777701 C170.858811,43.0777701 170.53975,43.661486 170.53975,44.0676882 C170.53975,44.6953826 171.023925,45.080795 171.934046,45.4550128 C173.207898,45.9723609 174.295098,46.5776662 174.295098,47.9202126 C174.295098,49.0644555 173.274103,50 171.847102,50 C170.507046,50 169.662332,49.295543 169.486051,49.1300236 C169.387939,49.042866 169.310567,48.9653037 169.420643,48.7789945 Z M181.29745,42.3953824 C181.29745,42.2850361 181.396359,42.1858844 181.506435,42.1858844 L182.230704,42.1858844 C182.351149,42.1858844 182.439689,42.2850361 182.439689,42.3953824 L182.439689,45.4658875 L186.457465,45.4658875 L186.457465,42.3953824 C186.457465,42.2850361 186.545206,42.1858844 186.66645,42.1858844 L187.390718,42.1858844 C187.499996,42.1858844 187.598905,42.2850361 187.598905,42.3953824 L187.598905,49.6806355 C187.598905,49.7909818 187.499996,49.8901335 187.390718,49.8901335 L186.66645,49.8901335 C186.545206,49.8901335 186.457465,49.7909818 186.457465,49.6806355 L186.457465,46.5005837 L182.439689,46.5005837 L182.439689,49.6806355 C182.439689,49.7909818 182.351149,49.8901335 182.230704,49.8901335 L181.506435,49.8901335 C181.396359,49.8901335 181.29745,49.7909818 181.29745,49.6806355 L181.29745,42.3953824 Z M195.215849,42.3953824 C195.215849,42.2850361 195.314758,42.1858844 195.424834,42.1858844 L196.149102,42.1858844 C196.259179,42.1858844 196.358087,42.2850361 196.358087,42.3953824 L196.358087,49.6806355 C196.358087,49.7909818 196.259179,49.8901335 196.149102,49.8901335 L195.424834,49.8901335 C195.314758,49.8901335 195.215849,49.7909818 195.215849,49.6806355 L195.215849,42.3953824 Z M29.4998274,14 C39.7010346,14 48,22.2991203 48,32.5001726 C48,42.7008797 39.7010346,51 29.4998274,51 C19.2989654,51 11,42.7008797 11,32.5001726 C11,22.2991203 19.2989654,14 29.4998274,14 Z M12.0355154,32.5001726 C12.0355154,33.5577987 12.13527,34.5919527 12.3164852,35.5981472 C13.9063465,27.9048148 21.6575243,21.928744 30.5353428,21.928744 C32.4393104,21.928744 34.2897764,22.1714043 36.039107,22.6284203 C36.3680557,22.6960752 36.6956238,22.7744307 37.0200853,22.871771 L37.0090398,22.9090502 C38.5440187,23.3905738 39.9895982,24.0401993 41.3109158,24.8392869 C41.3171289,24.8423935 41.3229968,24.8448097 41.3292099,24.8479163 L41.3281744,24.8496422 C43.5648876,26.2058475 45.444348,27.9886931 46.7956956,30.1022194 C45.623147,21.6032409 38.3162053,15.0355347 29.4998274,15.0355347 C19.8702247,15.0355347 12.0355154,22.8700451 12.0355154,32.5001726 Z M41.0050936,25.4581915 C37.0280242,23.5376198 34.1993414,24.097844 31.9115427,25.6038567 C35.9321038,24.8896829 39.7849113,25.1841199 42.3667963,26.3801625 C41.9304992,26.0543143 41.4769435,25.7457249 41.0050936,25.4581915 Z M30.3278945,25.9355729 C32.0551342,24.4847888 34.1258198,23.4116297 36.7874395,23.5621274 C36.4543487,23.4578836 36.117461,23.3601982 35.775741,23.2725229 C30.1749834,22.1437901 25.9141828,25.6977451 24.2808299,27.3566717 C23.726484,27.9200026 23.167996,28.542359 22.6271118,29.2209794 C25.1313332,27.6041645 27.5765302,26.7098077 29.1380874,26.2531369 C29.5343446,26.137157 29.9312922,26.0315325 30.3278945,25.9355729 Z M12.7496758,37.4327695 C13.0907055,38.589807 13.5463323,39.6978291 14.1075817,40.7419933 C15.3753976,35.9875083 18.0556566,32.6993404 20.907466,30.4491235 C21.8656629,28.9759028 22.8956555,27.7791699 23.7886149,26.8720415 C26.0101406,24.6166469 28.6268879,23.1762182 31.3157762,22.6342883 C31.0565522,22.6249685 30.7966378,22.6191005 30.5353428,22.6191005 C21.3365145,22.6191005 13.3927309,29.2517002 12.7496758,37.4327695 Z M14.6073904,41.6108069 C15.5638614,43.1685962 16.7591914,44.5627711 18.1398785,45.7484584 C16.9390259,40.2356168 18.0680828,35.7220662 19.8246621,32.3144667 C17.5368634,34.5246429 15.5438415,37.5366682 14.6073904,41.6108069 Z M29.4998274,49.9644653 C30.3603407,49.9644653 31.2056664,49.8995718 32.0333884,49.7784142 C28.8153517,48.0235281 26.6100492,44.9724977 25.76783,41.0457501 C24.7047009,36.0914069 25.9514614,30.3742199 28.7318202,27.4519409 C28.8933606,27.2821132 29.0580075,27.1140114 29.2254158,26.9476355 C27.3566558,27.5040628 24.274962,28.6814658 21.371722,30.9641295 C18.9299768,34.735892 17.3162986,39.8949259 19.0179956,46.4595255 C21.9395296,48.658656 25.5697014,49.9644653 29.4998274,49.9644653 Z M33.1776329,49.5716525 C34.935938,49.1929919 36.5951788,48.548199 38.1139347,47.6828372 C33.8531341,46.0335756 30.8805146,42.9190324 29.8929781,39.0226605 C28.9920797,35.4704313 29.8701967,31.7532069 32.1835381,29.3214262 C33.9049098,27.5126923 36.4198315,26.3156142 38.8657188,26.111959 C36.438816,25.7560803 33.5307436,25.8958775 30.6395847,26.5731171 C30.1501311,26.9959605 29.6831136,27.4536668 29.2323193,27.9279417 C26.6397339,30.6524335 25.440262,36.2298234 26.442986,40.9011204 C27.0615339,43.7843942 28.7421753,47.5830807 33.1776329,49.5716525 Z M38.8712416,47.2258212 C42.2673869,45.0567212 44.8582463,41.7440457 46.117433,37.838354 C46.0083588,37.9967908 45.8937617,38.1507403 45.7726064,38.2995121 C45.6228019,38.5117967 45.4629873,38.7144163 45.2945435,38.9039192 C44.8806825,39.356793 44.3712089,39.9225401 43.6363382,40.2967133 C41.7144217,41.3180957 39.4304199,41.3898928 37.5292137,40.6204905 C35.6145457,39.8655857 34.1213325,38.2777659 33.4454862,36.4093161 C32.8949372,34.9143492 32.8790593,33.2547322 33.3626449,31.7501003 C33.3919846,31.6517245 33.4261566,31.5557649 33.4596382,31.459115 C33.4810389,31.4007799 33.5003685,31.3420996 33.5238402,31.2841097 C34.3446587,29.0936086 36.2051347,27.413281 38.5050143,26.8437369 C36.3577006,27.1260927 34.194509,28.2099523 32.6840372,29.797427 C30.5322362,32.0586896 29.7193567,35.5287664 30.561921,38.853178 C31.1362869,41.1182375 32.9805398,45.1733914 38.8712416,47.2258212 Z M44.0322502,39.0016046 C45.6404056,37.8235113 46.6911086,35.9274473 46.6911086,33.7856163 C46.6911086,30.2188896 43.7892493,27.3169762 40.2225892,27.3169762 C39.6126706,27.3169762 39.0244979,27.4077581 38.4646292,27.5661949 C38.0152155,27.7156571 37.572015,27.911028 37.1509054,28.151272 C36.6521321,28.4640035 36.1740692,28.8202274 35.7574468,29.2413449 C35.3525603,29.6700563 34.968039,30.1215494 34.6794753,30.6244741 C34.3046188,31.2489015 34.0643792,31.890933 33.9197522,32.5018985 C33.8734992,32.8115234 33.7979066,33.1059604 33.7948,33.3948746 C33.7861707,33.5388139 33.7775414,33.6793014 33.7692573,33.8163372 C33.7751252,33.9537181 33.7809932,34.0876473 33.7865159,34.2181247 C33.8058455,34.5947141 33.8576213,34.9374761 33.927346,35.2484817 C33.9573759,35.3782687 33.9887866,35.5073654 34.0267555,35.6340458 C34.0422882,35.6872032 34.0588565,35.7372541 34.0750795,35.7879953 C34.1240939,35.9378026 34.1779407,36.0855389 34.2373103,36.2301686 C34.2556044,36.2746966 34.2742437,36.3199149 34.2925378,36.3616815 C34.3622625,36.5218442 34.4375099,36.6795906 34.5196608,36.8325046 C34.536229,36.8628803 34.5527973,36.8925656 34.5690204,36.920525 C34.6083699,36.9912866 34.6528971,37.0585963 34.6950081,37.127632 C34.7177894,37.1631853 34.7402256,37.1983935 34.7605907,37.2301499 C34.8562033,37.3889319 34.9342121,37.4890336 34.9804651,37.5390844 C35.0736615,37.6381506 34.9984141,37.565318 34.815473,37.2674292 C35.3342662,38.057197 35.9200228,38.4555326 36.6728424,38.9487923 C38.1936694,39.9504996 39.9233252,40.3381347 41.5715205,40.0474947 C41.6816303,40.0071088 41.9063372,39.9408346 42.1306988,39.8728345 C42.3488474,39.7851592 42.5694122,39.703352 42.6860802,39.67056 C43.1586204,39.4927932 43.6090696,39.2711888 44.0322502,39.0016046 Z" id="full-logo_377656a6658bc87b9efbf659accc05fa_logo-type"></path>
            </g>
        </g>
    </g>
</svg>
