<?xml version="1.0" encoding="UTF-8"?>
<svg width="747px" height="777px" viewBox="0 0 747 777" version="1.1" xmlns="http://www.w3.org/2000/svg" xmlns:xlink="http://www.w3.org/1999/xlink">
    <!-- Generator: Sketch 52.1 (67048) - http://www.bohemiancoding.com/sketch -->
    <title>entypo/clock</title>
    <desc>Created with Sketch.</desc>
    <g id="entypo/clock" stroke="none" stroke-width="1" fill="none" fill-rule="evenodd">
        <rect id="Rectangle-path" x="-1" y="0" width="747" height="777"></rect>
        <g id="Group" transform="translate(51.000000, 45.000000)" fill="#60B3B3">
            <path d="M1.12801437,340.422611 C1.12801437,402.195309 -4.52325412,537.840174 24.2602585,587.774082 C83.0165993,689.705133 195.417248,680.6064 321.51505,680.6064 C448.509641,680.6064 560.200932,690.871634 618.649976,587.774082 C646.685199,538.323095 641.649993,401.323762 641.649993,340.422611 C641.649993,152.552111 509.4229,0.20145 321.51505,0.20145 C133.64455,0.20145 1.12801437,152.552111 1.12801437,340.422611 Z M55.28425,340.45995 C55.28425,193.37565 174.50545,74.1918 321.51505,74.1918 C468.59935,74.1918 587.7832,193.37565 587.7832,340.45995 C587.7832,487.46955 468.59935,606.69075 321.51505,606.69075 C174.4681,606.69075 55.28425,487.46955 55.28425,340.45995 Z" id="Shape"></path>
            <polygon id="Shape" points="348.43595 141.1448 296.6315 141.1448 296.6315 367.683222 470.912155 367.683222 470.912155 315.083383 348.435951 315.083383"></polygon>
        </g>
    </g>
</svg>