<?xml version="1.0" encoding="UTF-8"?>
<svg width="69px" height="42px" viewBox="0 0 69 42" version="1.1" xmlns="http://www.w3.org/2000/svg" xmlns:xlink="http://www.w3.org/1999/xlink">
    <!-- Generator: Sketch 52.1 (67048) - http://www.bohemiancoding.com/sketch -->
    <title>logo</title>
    <desc>Created with Sketch.</desc>
    <defs>
        <path d="M31.5803799,45.7963867 L25.2156338,22.1904297 L18.7703213,45.7963867 C18.2690167,47.5867603 17.8706646,48.871334 17.5752529,49.6501465 C17.2798413,50.428959 16.7651166,51.1271942 16.0310635,51.744873 C15.2970103,52.3625519 14.3212714,52.6713867 13.1038174,52.6713867 C12.119112,52.6713867 11.3089801,52.4878762 10.6733975,52.1208496 C10.0378149,51.753823 9.52309021,51.2346225 9.12920803,50.5632324 C8.73532585,49.8918423 8.41306345,49.0951381 8.16241115,48.1730957 C7.91175886,47.2510533 7.68796552,46.3961628 7.49102443,45.6083984 L0.938290059,19.1020508 C0.544407881,17.5623295 0.347469746,16.3896525 0.347469746,15.5839844 C0.347469746,14.5634715 0.705539082,13.7041051 1.4216885,13.0058594 C2.13783791,12.3076137 3.02405952,11.9584961 4.0803799,11.9584961 C5.53058247,11.9584961 6.50632141,12.4239862 7.007626,13.3549805 C7.50893059,14.2859747 7.94756552,15.6376865 8.32354396,17.4101562 L13.479794,40.3984375 L19.2537197,18.887207 C19.6834094,17.2400634 20.0683339,15.9868207 20.4085049,15.1274414 C20.7486759,14.2680621 21.3036833,13.5250682 22.073544,12.8984375 C22.8434046,12.2718068 23.8907574,11.9584961 25.2156338,11.9584961 C26.558414,11.9584961 27.6012909,12.2852344 28.3442959,12.9387207 C29.0873009,13.592207 29.6020256,14.3038698 29.8884854,15.0737305 C30.1749451,15.8435911 30.5598697,17.1147372 31.0432705,18.887207 L36.8709072,40.3984375 L42.0271572,17.4101562 C42.2778095,16.210606 42.5150305,15.270674 42.7388272,14.590332 C42.9626239,13.9099901 43.3475484,13.3012722 43.8936123,12.7641602 C44.4396763,12.2270481 45.2319047,11.9584961 46.2703213,11.9584961 C47.308738,11.9584961 48.1904837,12.3031378 48.915585,12.9924316 C49.6406863,13.6817255 50.0032315,14.5455677 50.0032315,15.5839844 C50.0032315,16.3180375 49.8062933,17.4907146 49.4124112,19.1020508 L42.8596768,45.6083984 C42.4120834,47.398772 42.0405865,48.7102009 41.7451748,49.5427246 C41.4497632,50.3752483 40.9484661,51.1048146 40.2412686,51.7314453 C39.534071,52.358076 38.5359528,52.6713867 37.2468838,52.6713867 C36.0294298,52.6713867 35.0536909,52.3670278 34.3196377,51.7583008 C33.5855846,51.1495738 33.0753358,50.4647662 32.788876,49.7038574 C32.5024162,48.9429487 32.0995882,47.6404715 31.5803799,45.7963867 Z" id="path-1"></path>
        <path d="M62.574377,39.565918 L48.2335567,39.565918 C48.2514604,41.2309654 48.5871504,42.6990496 49.2406367,43.9702148 C49.8941231,45.2413801 50.7624412,46.1992155 51.8456172,46.84375 C52.9287932,47.4882845 54.1238496,47.8105469 55.4308223,47.8105469 C56.3081053,47.8105469 57.1092855,47.7076019 57.8343867,47.501709 C58.559488,47.295816 59.2621991,46.9735536 59.942541,46.5349121 C60.622883,46.0962706 61.2495043,45.6263046 61.8224239,45.125 C62.3953434,44.6236954 63.1383373,43.9433637 64.0514278,43.0839844 C64.4274062,42.7617171 64.9645102,42.6005859 65.6627559,42.6005859 C66.4147128,42.6005859 67.0234306,42.8064758 67.4889278,43.2182617 C67.9544249,43.6300476 68.1871699,44.2119103 68.1871699,44.9638672 C68.1871699,45.6263054 67.9275697,46.4006303 67.4083614,47.2868652 C66.889153,48.1731001 66.1058764,49.0235148 65.0585078,49.8381348 C64.0111393,50.6527547 62.6952345,51.3286106 61.1107539,51.8657227 C59.5262734,52.4028347 57.7045956,52.6713867 55.645666,52.6713867 C50.9369836,52.6713867 47.2757247,51.3286267 44.6617793,48.6430664 C42.047834,45.9575061 40.7408809,42.3141506 40.7408809,37.7128906 C40.7408809,35.5465386 41.0631433,33.5368745 41.7076778,31.6838379 C42.3522122,29.8308013 43.2921442,28.2418686 44.527502,26.9169922 C45.7628597,25.5921158 47.2846544,24.576094 49.0929317,23.8688965 C50.9012089,23.1616989 52.9063972,22.8081055 55.1085567,22.8081055 C57.9731543,22.8081055 60.4304051,23.4123475 62.4803828,24.6208496 C64.5303605,25.8293517 66.0655828,27.3914292 67.0860957,29.3071289 C68.1066086,31.2228286 68.6168574,33.1743065 68.6168574,35.1616211 C68.6168574,37.0057058 68.0887052,38.2007622 67.0323848,38.7468262 C65.9760644,39.2928901 64.4900767,39.565918 62.574377,39.565918 Z M48.2335567,35.4033203 L61.5270137,35.4033203 C61.3479763,32.8967974 60.6721205,31.0214092 59.4994258,29.7770996 C58.3267311,28.53279 56.7825571,27.9106445 54.8668574,27.9106445 C53.0406764,27.9106445 51.5412611,28.5417417 50.3685664,29.8039551 C49.1958718,31.0661684 48.484209,32.9326048 48.2335567,35.4033203 Z" id="path-2"></path>
    </defs>
    <g id="Page-1" stroke="none" stroke-width="1" fill="none" fill-rule="evenodd">
        <g id="logo" transform="translate(0.000000, -11.000000)">
            <g id="W">
                <use fill="#000000" xlink:href="#path-1"></use>
                <use fill="#B18907" xlink:href="#path-1"></use>
            </g>
            <g id="e">
                <use fill="#000000" xlink:href="#path-2"></use>
                <use fill="#303030" xlink:href="#path-2"></use>
            </g>
        </g>
    </g>
</svg>