<?xml version="1.0" encoding="UTF-8"?>
<svg width="78px" height="52px" viewBox="0 0 78 52" version="1.1" xmlns="http://www.w3.org/2000/svg" xmlns:xlink="http://www.w3.org/1999/xlink">
    <!-- Generator: Sketch 52.1 (67048) - http://www.bohemiancoding.com/sketch -->
    <title>Group</title>
    <desc>Created with Sketch.</desc>
    <g id="Page-1" stroke="none" stroke-width="1" fill="none" fill-rule="evenodd">
        <g id="Group">
            <rect id="Rectangle" fill="#FFFFFF" x="0" y="0" width="78" height="52"></rect>
            <g id="logo" transform="translate(5.000000, 5.000000)">
                <g id="W">
                    <g id="path-1-link" fill="#000000">
                        <path d="M31.5803799,34.7963867 L25.2156338,11.1904297 L18.7703213,34.7963867 C18.2690167,36.5867603 17.8706646,37.871334 17.5752529,38.6501465 C17.2798413,39.428959 16.7651166,40.1271942 16.0310635,40.744873 C15.2970103,41.3625519 14.3212714,41.6713867 13.1038174,41.6713867 C12.119112,41.6713867 11.3089801,41.4878762 10.6733975,41.1208496 C10.0378149,40.753823 9.52309021,40.2346225 9.12920803,39.5632324 C8.73532585,38.8918423 8.41306345,38.0951381 8.16241115,37.1730957 C7.91175886,36.2510533 7.68796552,35.3961628 7.49102443,34.6083984 L0.938290059,8.1020508 C0.544407881,6.5623295 0.347469746,5.3896525 0.347469746,4.5839844 C0.347469746,3.5634715 0.705539082,2.7041051 1.4216885,2.0058594 C2.13783791,1.3076137 3.02405952,0.9584961 4.0803799,0.9584961 C5.53058247,0.9584961 6.50632141,1.4239862 7.007626,2.3549805 C7.50893059,3.2859747 7.94756552,4.6376865 8.32354396,6.4101562 L13.479794,29.3984375 L19.2537197,7.887207 C19.6834094,6.2400634 20.0683339,4.9868207 20.4085049,4.1274414 C20.7486759,3.2680621 21.3036833,2.5250682 22.073544,1.8984375 C22.8434046,1.2718068 23.8907574,0.9584961 25.2156338,0.9584961 C26.558414,0.9584961 27.6012909,1.2852344 28.3442959,1.9387207 C29.0873009,2.592207 29.6020256,3.3038698 29.8884854,4.0737305 C30.1749451,4.8435911 30.5598697,6.1147372 31.0432705,7.887207 L36.8709072,29.3984375 L42.0271572,6.4101562 C42.2778095,5.210606 42.5150305,4.270674 42.7388272,3.590332 C42.9626239,2.9099901 43.3475484,2.3012722 43.8936123,1.7641602 C44.4396763,1.2270481 45.2319047,0.9584961 46.2703213,0.9584961 C47.308738,0.9584961 48.1904837,1.3031378 48.915585,1.9924316 C49.6406863,2.6817255 50.0032315,3.5455677 50.0032315,4.5839844 C50.0032315,5.3180375 49.8062933,6.4907146 49.4124112,8.1020508 L42.8596768,34.6083984 C42.4120834,36.398772 42.0405865,37.7102009 41.7451748,38.5427246 C41.4497632,39.3752483 40.9484661,40.1048146 40.2412686,40.7314453 C39.534071,41.358076 38.5359528,41.6713867 37.2468838,41.6713867 C36.0294298,41.6713867 35.0536909,41.3670278 34.3196377,40.7583008 C33.5855846,40.1495738 33.0753358,39.4647662 32.788876,38.7038574 C32.5024162,37.9429487 32.0995882,36.6404715 31.5803799,34.7963867 Z" id="path-1"></path>
                    </g>
                    <g id="path-1-link" fill="#B18907">
                        <path d="M31.5803799,34.7963867 L25.2156338,11.1904297 L18.7703213,34.7963867 C18.2690167,36.5867603 17.8706646,37.871334 17.5752529,38.6501465 C17.2798413,39.428959 16.7651166,40.1271942 16.0310635,40.744873 C15.2970103,41.3625519 14.3212714,41.6713867 13.1038174,41.6713867 C12.119112,41.6713867 11.3089801,41.4878762 10.6733975,41.1208496 C10.0378149,40.753823 9.52309021,40.2346225 9.12920803,39.5632324 C8.73532585,38.8918423 8.41306345,38.0951381 8.16241115,37.1730957 C7.91175886,36.2510533 7.68796552,35.3961628 7.49102443,34.6083984 L0.938290059,8.1020508 C0.544407881,6.5623295 0.347469746,5.3896525 0.347469746,4.5839844 C0.347469746,3.5634715 0.705539082,2.7041051 1.4216885,2.0058594 C2.13783791,1.3076137 3.02405952,0.9584961 4.0803799,0.9584961 C5.53058247,0.9584961 6.50632141,1.4239862 7.007626,2.3549805 C7.50893059,3.2859747 7.94756552,4.6376865 8.32354396,6.4101562 L13.479794,29.3984375 L19.2537197,7.887207 C19.6834094,6.2400634 20.0683339,4.9868207 20.4085049,4.1274414 C20.7486759,3.2680621 21.3036833,2.5250682 22.073544,1.8984375 C22.8434046,1.2718068 23.8907574,0.9584961 25.2156338,0.9584961 C26.558414,0.9584961 27.6012909,1.2852344 28.3442959,1.9387207 C29.0873009,2.592207 29.6020256,3.3038698 29.8884854,4.0737305 C30.1749451,4.8435911 30.5598697,6.1147372 31.0432705,7.887207 L36.8709072,29.3984375 L42.0271572,6.4101562 C42.2778095,5.210606 42.5150305,4.270674 42.7388272,3.590332 C42.9626239,2.9099901 43.3475484,2.3012722 43.8936123,1.7641602 C44.4396763,1.2270481 45.2319047,0.9584961 46.2703213,0.9584961 C47.308738,0.9584961 48.1904837,1.3031378 48.915585,1.9924316 C49.6406863,2.6817255 50.0032315,3.5455677 50.0032315,4.5839844 C50.0032315,5.3180375 49.8062933,6.4907146 49.4124112,8.1020508 L42.8596768,34.6083984 C42.4120834,36.398772 42.0405865,37.7102009 41.7451748,38.5427246 C41.4497632,39.3752483 40.9484661,40.1048146 40.2412686,40.7314453 C39.534071,41.358076 38.5359528,41.6713867 37.2468838,41.6713867 C36.0294298,41.6713867 35.0536909,41.3670278 34.3196377,40.7583008 C33.5855846,40.1495738 33.0753358,39.4647662 32.788876,38.7038574 C32.5024162,37.9429487 32.0995882,36.6404715 31.5803799,34.7963867 Z" id="path-1"></path>
                    </g>
                </g>
                <g id="e" transform="translate(40.000000, 11.000000)" fill-rule="nonzero">
                    <g id="path-2-link" fill="#000000">
                        <path d="M22.574377,17.565918 L8.2335567,17.565918 C8.2514604,19.2309654 8.5871504,20.6990496 9.2406367,21.9702148 C9.8941231,23.2413801 10.7624412,24.1992155 11.8456172,24.84375 C12.9287932,25.4882845 14.1238496,25.8105469 15.4308223,25.8105469 C16.3081053,25.8105469 17.1092855,25.7076019 17.8343867,25.501709 C18.559488,25.295816 19.2621991,24.9735536 19.942541,24.5349121 C20.622883,24.0962706 21.2495043,23.6263046 21.8224239,23.125 C22.3953434,22.6236954 23.1383373,21.9433637 24.0514278,21.0839844 C24.4274062,20.7617171 24.9645102,20.6005859 25.6627559,20.6005859 C26.4147128,20.6005859 27.0234306,20.8064758 27.4889278,21.2182617 C27.9544249,21.6300476 28.1871699,22.2119103 28.1871699,22.9638672 C28.1871699,23.6263054 27.9275697,24.4006303 27.4083614,25.2868652 C26.889153,26.1731001 26.1058764,27.0235148 25.0585078,27.8381348 C24.0111393,28.6527547 22.6952345,29.3286106 21.1107539,29.8657227 C19.5262734,30.4028347 17.7045956,30.6713867 15.645666,30.6713867 C10.9369836,30.6713867 7.2757247,29.3286267 4.6617793,26.6430664 C2.047834,23.9575061 0.7408809,20.3141506 0.7408809,15.7128906 C0.7408809,13.5465386 1.0631433,11.5368745 1.7076778,9.6838379 C2.3522122,7.8308013 3.2921442,6.2418686 4.527502,4.9169922 C5.7628597,3.5921158 7.2846544,2.576094 9.0929317,1.8688965 C10.9012089,1.1616989 12.9063972,0.8081055 15.1085567,0.8081055 C17.9731543,0.8081055 20.4304051,1.4123475 22.4803828,2.6208496 C24.5303605,3.8293517 26.0655828,5.3914292 27.0860957,7.3071289 C28.1066086,9.2228286 28.6168574,11.1743065 28.6168574,13.1616211 C28.6168574,15.0057058 28.0887052,16.2007622 27.0323848,16.7468262 C25.9760644,17.2928901 24.4900767,17.565918 22.574377,17.565918 Z M8.2335567,13.4033203 L21.5270137,13.4033203 C21.3479763,10.8967974 20.6721205,9.0214092 19.4994258,7.7770996 C18.3267311,6.53279 16.7825571,5.9106445 14.8668574,5.9106445 C13.0406764,5.9106445 11.5412611,6.5417417 10.3685664,7.8039551 C9.1958718,9.0661684 8.484209,10.9326048 8.2335567,13.4033203 Z" id="path-2"></path>
                    </g>
                    <g id="path-2-link" fill="#303030">
                        <path d="M22.574377,17.565918 L8.2335567,17.565918 C8.2514604,19.2309654 8.5871504,20.6990496 9.2406367,21.9702148 C9.8941231,23.2413801 10.7624412,24.1992155 11.8456172,24.84375 C12.9287932,25.4882845 14.1238496,25.8105469 15.4308223,25.8105469 C16.3081053,25.8105469 17.1092855,25.7076019 17.8343867,25.501709 C18.559488,25.295816 19.2621991,24.9735536 19.942541,24.5349121 C20.622883,24.0962706 21.2495043,23.6263046 21.8224239,23.125 C22.3953434,22.6236954 23.1383373,21.9433637 24.0514278,21.0839844 C24.4274062,20.7617171 24.9645102,20.6005859 25.6627559,20.6005859 C26.4147128,20.6005859 27.0234306,20.8064758 27.4889278,21.2182617 C27.9544249,21.6300476 28.1871699,22.2119103 28.1871699,22.9638672 C28.1871699,23.6263054 27.9275697,24.4006303 27.4083614,25.2868652 C26.889153,26.1731001 26.1058764,27.0235148 25.0585078,27.8381348 C24.0111393,28.6527547 22.6952345,29.3286106 21.1107539,29.8657227 C19.5262734,30.4028347 17.7045956,30.6713867 15.645666,30.6713867 C10.9369836,30.6713867 7.2757247,29.3286267 4.6617793,26.6430664 C2.047834,23.9575061 0.7408809,20.3141506 0.7408809,15.7128906 C0.7408809,13.5465386 1.0631433,11.5368745 1.7076778,9.6838379 C2.3522122,7.8308013 3.2921442,6.2418686 4.527502,4.9169922 C5.7628597,3.5921158 7.2846544,2.576094 9.0929317,1.8688965 C10.9012089,1.1616989 12.9063972,0.8081055 15.1085567,0.8081055 C17.9731543,0.8081055 20.4304051,1.4123475 22.4803828,2.6208496 C24.5303605,3.8293517 26.0655828,5.3914292 27.0860957,7.3071289 C28.1066086,9.2228286 28.6168574,11.1743065 28.6168574,13.1616211 C28.6168574,15.0057058 28.0887052,16.2007622 27.0323848,16.7468262 C25.9760644,17.2928901 24.4900767,17.565918 22.574377,17.565918 Z M8.2335567,13.4033203 L21.5270137,13.4033203 C21.3479763,10.8967974 20.6721205,9.0214092 19.4994258,7.7770996 C18.3267311,6.53279 16.7825571,5.9106445 14.8668574,5.9106445 C13.0406764,5.9106445 11.5412611,6.5417417 10.3685664,7.8039551 C9.1958718,9.0661684 8.484209,10.9326048 8.2335567,13.4033203 Z" id="path-2"></path>
                    </g>
                </g>
            </g>
        </g>
    </g>
</svg>