<svg xmlns="http://www.w3.org/2000/svg" width="234" height="48" viewBox="0 0 234 48">
    <g fill="none" fill-rule="evenodd">
        <path fill="#404040" d="M51.316 5.998H5v6.034h18.33c.997 0 1.81.814 1.81 1.81V41h6.035V12.032h20.14V5.998zm73.198 14.485h35.937c2.315 0 4.345-1.975 4.345-4.224 0-2.37-1.707-4.225-3.884-4.225h-36.398v8.449zm0 14.483h35.937c2.315 0 4.345-1.975 4.345-4.225 0-2.37-1.707-4.224-3.884-4.224h-36.398v8.449zM160.451 41h-38.954a3.018 3.018 0 0 1-3.017-3.017V9.017A3.017 3.017 0 0 1 121.497 6h39.415c5.47 0 9.918 4.6 9.918 10.259 0 2.74-1.156 5.271-3.002 7.137a10.392 10.392 0 0 1 3.002 7.345c0 5.56-4.752 10.259-10.379 10.259zm65.922-14.683v-6.035h-45.116a3.015 3.015 0 0 0-3.017 3.018v14.683A3.017 3.017 0 0 0 181.257 41h45.116v-6.034h-42.099v-8.65h42.1zM226.371 6h-37.04v6.034h37.04V6z"/>
        <path fill="#74B339" d="M100.691 41H61.737a3.018 3.018 0 0 1-3.017-3.017V9.017A3.017 3.017 0 0 1 61.737 6h39.415c5.47 0 9.918 4.6 9.918 10.259 0 2.74-1.156 5.271-3.002 7.137a10.392 10.392 0 0 1 3.002 7.345c0 5.56-4.752 10.259-10.379 10.259zm-35.937-6.034h35.937c2.315 0 4.345-1.975 4.345-4.225 0-2.37-1.707-4.224-3.884-4.224H64.754v8.449zm0-14.483h35.937c2.315 0 4.345-1.975 4.345-4.224 0-2.37-1.707-4.225-3.884-4.225H64.754v8.449z"/>
    </g>
</svg>
